# xmcd
#
# Track frame offsets:
# 150
# 4399
# 23738
# 47752
# 70916
# 77038
# 104011
# 130519
# 133632
# 155216
# 182126
# 182862
# 202407
# 222905
# 244298
# 246319
# 266563
# 287271
# 289771
# 307396
#
# Disc length: 4506 seconds
#
# Revision: 1
# Processed by: cddbd v1.5.1PL0 Copyright (c) Steve Scherf et al.
# Submitted via: Easy CD Ripper v2.34
#
DISCID=3d119814
DTITLE=G Unit - The Game
DYEAR=2005
DGENRE=Rap
TTITLE0=Crunk Juice - Lil John and The East Side Boyz
TTITLE1=
TTITLE2=
TTITLE3=
TTITLE4=
TTITLE5=
TTITLE6=
TTITLE7=
TTITLE8=
TTITLE9=
TTITLE10=
TTITLE11=
TTITLE12=
TTITLE13=
TTITLE14=
TTITLE15=
TTITLE16=
TTITLE17=
TTITLE18=
TTITLE19=
EXTD=
EXTT0=
EXTT1=
EXTT2=
EXTT3=
EXTT4=
EXTT5=
EXTT6=
EXTT7=
EXTT8=
EXTT9=
EXTT10=
EXTT11=
EXTT12=
EXTT13=
EXTT14=
EXTT15=
EXTT16=
EXTT17=
EXTT18=
EXTT19=
PLAYORDER=
